<svg xmlns="http://www.w3.org/2000/svg" viewBox="0 0 512.002 512.002" fill="currentColor">
<g>
<path style="fill:none;stroke:currentColor;stroke-width:15;stroke-linecap:round;stroke-linejoin:round;stroke-miterlimit:10;" d="M316.487,469.059v2.478c0,13.57-13.86,22.733-26.351,17.427l-10.077-4.286c-15.372-6.538-32.743-6.538-48.115,0l-10.077,4.286c-12.491,5.306-26.351-3.857-26.351-17.427v-2.478"></path>
<g>
<path style="fill:none;stroke:currentColor;stroke-width:15;stroke-linecap:round;stroke-linejoin:round;stroke-miterlimit:10;" d="M256.002,281.277h-14.72c-19.721,0-35.707,15.987-35.707,35.707v0c0,13.576,10.433,25.258,23.995,25.897c14.479,0.682,26.432-10.856,26.432-25.185c0,14.329,11.953,25.866,26.432,25.185c13.561-0.639,23.995-12.32,23.995-25.897v0c0-19.721-15.987-35.707-35.707-35.707H256.002z"></path>
</g>
<line style="fill:none;stroke:currentColor;stroke-width:15;stroke-linecap:round;stroke-linejoin:round;stroke-miterlimit:10;" x1="256.002" y1="399.66" x2="256.002" y2="327.689"></line>
<path style="fill:none;stroke:currentColor;stroke-width:15;stroke-linecap:round;stroke-linejoin:round;stroke-miterlimit:10;" d="M330.732,89.739l8.59,1.86c18.85,4.05,34.16,17.45,40.78,35.31"></path>
<path style="fill:none;stroke:currentColor;stroke-width:15;stroke-linecap:round;stroke-linejoin:round;stroke-miterlimit:10;" d="M181.282,89.739l-8.6,1.86c-20.48,4.4-36.8,19.86-42.32,40.08l-65.33,239.72c-3.55,13.02-15.35,21.58-28.23,21.58c-2.55,0-5.14-0.33-7.73-1.03c-13.03-3.56-21.94-15.57-21.56-29.07l5.94-210.16c0.83-29.08,18.17-55.16,44.67-67.17l89.83-40.71c18.79-8.51,38.32-14.7,58.2-18.55c32.92-6.38,66.78-6.38,99.71,0c19.87,3.85,39.41,10.04,58.19,18.55l89.84,40.71c26.5,12.01,43.83,38.09,44.66,67.17l5.94,210.16c0.01,0.28,0.01,0.56,0.01,0.83c0,13.16-8.8,24.75-21.56,28.24c-15.61,4.26-31.71-4.94-35.97-20.55l-57.46-210.86"></path>
<path style="fill:none;stroke:currentColor;stroke-width:15;stroke-linecap:round;stroke-linejoin:round;stroke-miterlimit:10;" d="M446.972,371.4c0,0-65.12,4.028-74.306,97.05"></path>
<path style="fill:none;stroke:currentColor;stroke-width:15;stroke-linecap:round;stroke-linejoin:round;stroke-miterlimit:10;" d="M139.342,468.449c-3.18-32.2-13.07-53.74-24.63-68.13"></path>
<path style="fill:none;stroke:currentColor;stroke-width:15;stroke-linecap:round;stroke-linejoin:round;stroke-miterlimit:10;" d="M87.672,378.329c-12.68-6.31-22.64-6.93-22.64-6.93"></path>
<path style="fill:none;stroke:currentColor;stroke-width:15;stroke-linecap:round;stroke-linejoin:round;stroke-miterlimit:10;" d="M371.442,381.039c0.8,5.52,1.22,11.17,1.22,16.91v70.5c0,18.52-21.48,28.76-35.86,17.09l-65.02-52.75c-9.98-8.11-15.78-20.28-15.78-33.13c0,12.85-5.8,25.02-15.78,33.13l-65.02,52.75c-14.38,11.67-35.86,1.43-35.86-17.09v-70.5c0-53.34,35.8-98.32,84.68-112.23h0.01"></path>
<path style="fill:none;stroke:currentColor;stroke-width:15;stroke-linecap:round;stroke-linejoin:round;stroke-miterlimit:10;" d="M287.982,285.719c32.51,9.25,59.23,32.24,73.48,62.3"></path>
<path style="fill:none;stroke:currentColor;stroke-width:15;stroke-linecap:round;stroke-linejoin:round;stroke-miterlimit:10;" d="M206.152,26.289v62.02c0,10.38,1.03,20.71,3.06,30.84c2.04,10.13,5.09,20.04,9.11,29.61c8.03,19.15,12.17,39.7,12.17,60.46v73.73"></path>
<path style="fill:none;stroke:currentColor;stroke-width:15;stroke-linecap:round;stroke-linejoin:round;stroke-miterlimit:10;" d="M305.852,26.289v62.02c0,20.76-4.13,41.32-12.17,60.45c-4.01,9.58-7.06,19.5-9.1,29.63c-2.04,10.12-3.07,20.46-3.07,30.83v73.73"></path>
<path style="fill:none;stroke:currentColor;stroke-width:15;stroke-linecap:round;stroke-linejoin:round;stroke-miterlimit:10;" d="M230.49,206.36c0-46.499-102.382-66.408-126.274,21.261"></path>
<path style="fill:none;stroke:currentColor;stroke-width:15;stroke-linecap:round;stroke-linejoin:round;stroke-miterlimit:10;" d="M281.515,206.36c0-46.499,102.382-66.408,126.274,21.261"></path>
<g>
<line style="fill:none;stroke:currentColor;stroke-width:15;stroke-linecap:round;stroke-linejoin:round;stroke-miterlimit:10;" x1="325.932" y1="221.639" x2="325.932" y2="246.59"></line>
<line style="fill:none;stroke:currentColor;stroke-width:15;stroke-linecap:round;stroke-linejoin:round;stroke-miterlimit:10;" x1="186.072" y1="221.639" x2="186.072" y2="246.59"></line>
</g>
<g>
<path style="fill:none;stroke:currentColor;stroke-width:15;stroke-linecap:round;stroke-linejoin:round;stroke-miterlimit:10;" d="M353.48,233.58c0,0-12.069-21.905-45.943-17.781"></path>
<path style="fill:none;stroke:currentColor;stroke-width:15;stroke-linecap:round;stroke-linejoin:round;stroke-miterlimit:10;" d="M158.523,233.58c0,0,12.069-21.905,45.944-17.781"></path>
</g>
<g>
<g>
<line style="fill:none;stroke:currentColor;stroke-width:15;stroke-linecap:round;stroke-linejoin:round;stroke-miterlimit:10;" x1="188.754" y1="439.239" x2="188.754" y2="439.378"></line>
<line style="fill:none;stroke:currentColor;stroke-width:15;stroke-linecap:round;stroke-linejoin:round;stroke-miterlimit:10;" x1="171.571" y1="459.488" x2="171.571" y2="459.627"></line>
<line style="fill:none;stroke:currentColor;stroke-width:15;stroke-linecap:round;stroke-linejoin:round;stroke-miterlimit:10;" x1="161.251" y1="437.37" x2="161.251" y2="437.509"></line>
</g>
<g>
<line style="fill:none;stroke:currentColor;stroke-width:15;stroke-linecap:round;stroke-linejoin:round;stroke-miterlimit:10;" x1="323.25" y1="439.239" x2="323.25" y2="439.378"></line>
<line style="fill:none;stroke:currentColor;stroke-width:15;stroke-linecap:round;stroke-linejoin:round;stroke-miterlimit:10;" x1="340.432" y1="459.488" x2="340.432" y2="459.627"></line>
<line style="fill:none;stroke:currentColor;stroke-width:15;stroke-linecap:round;stroke-linejoin:round;stroke-miterlimit:10;" x1="350.753" y1="437.37" x2="350.753" y2="437.509"></line>
</g>
</g>
<path style="fill:none;stroke:currentColor;stroke-width:15;stroke-linecap:round;stroke-linejoin:round;stroke-miterlimit:10;" d="M336.802,485.536l-53.957-43.781c-15.645-12.694-38.042-12.694-53.687,0l-53.957,43.781"></path>
</g>
</svg>
